<svg width="147" height="146" viewBox="0 0 147 146" fill="none" xmlns="http://www.w3.org/2000/svg">
<path d="M146.994 67.5216C146.96 66.9736 146.716 66.4583 146.31 66.0794C145.904 65.7005 145.366 65.4862 144.805 65.4796H119.522L123.624 56.3306C123.854 55.8084 123.867 55.2187 123.658 54.6876L121.558 49.4156C122.729 48.9959 123.862 48.4822 124.946 47.8796L130.21 51.0646C130.647 51.3269 131.163 51.4324 131.67 51.3628C132.178 51.2933 132.644 51.0531 132.99 50.6836L138.081 45.2146C138.43 44.84 138.632 44.3569 138.652 43.8506C138.672 43.3443 138.509 42.8474 138.19 42.4476L134.407 37.6996C134.87 36.6896 135.254 35.6466 135.555 34.5796L141.587 33.2166C142.089 33.1034 142.535 32.8209 142.846 32.4187C143.157 32.0165 143.313 31.5202 143.287 31.0166L142.907 23.6566C142.881 23.1528 142.674 22.6741 142.324 22.3043C141.973 21.9344 141.501 21.697 140.989 21.6336L134.842 20.8726C134.433 19.8407 133.944 18.8408 133.38 17.8816L136.652 12.7816C136.927 12.3525 137.039 11.842 136.967 11.3403C136.895 10.8385 136.644 10.3778 136.258 10.0396L130.635 5.10059C130.252 4.76639 129.763 4.57346 129.25 4.5552C128.738 4.53693 128.235 4.69449 127.829 5.00059L122.921 8.68759C121.874 8.2346 120.793 7.86019 119.687 7.56759L118.29 1.71759C118.175 1.22581 117.886 0.789494 117.475 0.485342C117.063 0.181191 116.555 0.0286707 116.04 0.0545923L108.46 0.428592C107.945 0.453973 107.456 0.655211 107.078 0.997175C106.7 1.33914 106.457 1.8001 106.391 2.29959L105.605 8.25759C104.535 8.65789 103.498 9.13728 102.503 9.69159L97.2381 6.50659C96.802 6.24293 96.2854 6.13669 95.7777 6.20627C95.27 6.27585 94.8032 6.51686 94.458 6.88759L89.3672 12.3566C89.0183 12.7312 88.8161 13.2144 88.7963 13.7207C88.7765 14.2271 88.9403 14.724 89.2588 15.1236L93.0419 19.8706C92.6837 20.6566 92.3734 21.4627 92.1125 22.2846L81.8225 17.8716C81.2895 17.6424 80.6852 17.6296 80.1425 17.8358C79.5998 18.0421 79.1629 18.4506 78.9279 18.9716L70.1931 38.4556V5.08659C70.1931 2.30859 65.7965 2.30859 65.7965 5.08659V14.4986C58.3248 14.8287 51.0421 16.9021 44.5565 20.5457C38.071 24.1893 32.5707 29.2974 28.5148 35.4436C27.0179 37.6956 30.573 40.2316 32.1956 37.7856C35.8529 32.2397 40.8076 27.6251 46.6499 24.3235C52.4923 21.0218 59.0544 19.128 65.7935 18.7986V109.769H52.25C51.3584 109.765 50.5047 109.415 49.8763 108.797C49.248 108.178 48.8963 107.341 48.8984 106.469V99.1046C48.8984 98.7166 48.791 98.3358 48.5876 98.0027C48.3842 97.6696 48.0923 97.3966 47.7431 97.2126C39.0313 92.6193 32.2227 85.2075 28.4825 76.2457C24.7422 67.2839 24.3029 57.3293 27.2398 48.0856C28.0864 45.4336 23.8922 44.1526 23.0477 46.8046C19.8746 56.7889 20.2708 67.5323 24.171 77.2671C28.0712 87.002 35.2432 95.1486 44.507 100.367V106.467C44.5079 108.103 45.0482 109.695 46.0476 111.006C47.047 112.318 48.4523 113.28 50.0548 113.749V123.928C50.0567 127.089 51.341 130.12 53.6258 132.356C55.9106 134.592 59.0092 135.851 62.2415 135.855H65.7965V143.455C65.7965 146.233 70.1931 146.233 70.1931 143.455V92.0266L92.5787 101.627L92.0757 104.433C91.3376 104.678 90.616 104.968 89.9152 105.302L85.9706 102.614C85.5475 102.325 85.0341 102.192 84.5204 102.236C84.0067 102.281 83.5254 102.501 83.1609 102.858L78.8216 107.106C78.457 107.463 78.2324 107.934 78.1871 108.436C78.1419 108.939 78.2789 109.441 78.5742 109.855L81.3266 113.711C80.986 114.396 80.69 115.102 80.4402 115.825L75.743 116.636C75.2329 116.724 74.7711 116.985 74.439 117.374C74.107 117.763 73.926 118.254 73.9281 118.761L73.9537 124.787C73.9559 125.288 74.1372 125.773 74.4664 126.157C74.7956 126.542 75.2519 126.802 75.7563 126.892L80.4821 127.736C80.74 128.468 81.0449 129.183 81.3951 129.878L78.6815 133.707C78.3884 134.121 78.2532 134.622 78.2995 135.124C78.3459 135.625 78.5708 136.095 78.9351 136.451L83.3092 140.726C83.6734 141.081 84.1538 141.301 84.6665 141.346C85.1793 141.39 85.6918 141.258 86.1148 140.971L90.0277 138.314C90.7382 138.655 91.47 138.953 92.2188 139.205L93.0859 143.827C93.1783 144.32 93.4443 144.766 93.8377 145.088C94.2312 145.409 94.7274 145.586 95.2402 145.588L101.401 145.607H101.409C101.925 145.606 102.425 145.428 102.821 145.103C103.217 144.778 103.483 144.327 103.572 143.83L104.397 139.23C105.135 138.985 105.857 138.694 106.558 138.361L110.492 141.055C110.915 141.343 111.429 141.477 111.942 141.432C112.456 141.388 112.937 141.168 113.302 140.811L117.649 136.555C118.014 136.198 118.239 135.727 118.284 135.224C118.329 134.721 118.192 134.219 117.897 133.806L115.144 129.95C115.485 129.264 115.781 128.558 116.031 127.836L120.728 127.025C121.238 126.936 121.7 126.675 122.032 126.286C122.364 125.897 122.545 125.406 122.543 124.9L122.518 118.874C122.516 118.372 122.335 117.887 122.006 117.503C121.676 117.118 121.22 116.859 120.716 116.769L116.273 115.976C122.561 115.948 128.952 115.948 135.155 115.948C135.518 116.012 135.892 115.987 136.244 115.876C136.595 115.765 136.913 115.57 137.169 115.31L146.403 105.71C146.786 105.311 147 104.785 147 104.238V67.6296C146.994 67.5926 146.994 67.5546 146.994 67.5216ZM139.723 69.7776L134.713 74.9836H103.192L108.202 69.7776H139.723ZM114.926 32.7616C114.711 32.233 114.294 31.8069 113.764 31.5736L105.426 27.9976C105.559 26.5344 106.095 25.1337 106.975 23.9435C107.855 22.7532 109.048 21.8177 110.427 21.2357C111.806 20.6536 113.32 20.4468 114.809 20.637C116.299 20.8271 117.708 21.4073 118.888 22.3161C120.068 23.2249 120.975 24.4286 121.513 25.7999C122.052 27.1713 122.201 28.6595 121.946 30.1071C121.691 31.5547 121.041 32.9081 120.064 34.0242C119.088 35.1402 117.821 35.9775 116.398 36.4476L114.926 32.7616ZM112.751 39.1416L115.124 45.0996L117.634 51.3996L108.916 47.6336L112.751 39.1416ZM97.3454 18.2906L93.8619 13.9156L96.4784 11.1046L101.339 14.0446C101.695 14.2595 102.106 14.3709 102.523 14.3656C102.941 14.3603 103.349 14.2385 103.699 14.0146C105.113 13.1078 106.649 12.3983 108.263 11.9066C108.665 11.7842 109.022 11.5517 109.292 11.2368C109.563 10.9218 109.735 10.5375 109.789 10.1296L110.515 4.62959L114.429 4.43659L115.717 9.83659C115.813 10.237 116.024 10.6022 116.325 10.8888C116.627 11.1754 117.006 11.3714 117.418 11.4536C119.075 11.7836 120.676 12.3379 122.176 13.1006C122.547 13.2895 122.965 13.3711 123.381 13.3357C123.798 13.3003 124.195 13.1493 124.527 12.9006L129.06 9.50059L131.952 12.0396L128.937 16.7396C128.713 17.0898 128.596 17.4961 128.601 17.9095C128.607 18.323 128.734 18.7261 128.968 19.0706C129.898 20.4381 130.626 21.9267 131.131 23.4926C131.258 23.8846 131.496 24.2329 131.819 24.4963C132.141 24.7596 132.535 24.927 132.951 24.9786L138.619 25.6786L138.813 29.4436L133.247 30.7006C132.837 30.7929 132.464 30.9982 132.17 31.2921C131.876 31.586 131.675 31.9561 131.589 32.3586C131.248 33.9666 130.677 35.5195 129.893 36.9716C129.696 37.3375 129.611 37.7513 129.648 38.1633C129.685 38.5754 129.843 38.9682 130.103 39.2946L133.587 43.6696L130.971 46.4806L126.11 43.5406C125.755 43.3258 125.344 43.2146 124.926 43.2199C124.509 43.2252 124.101 43.3469 123.751 43.5706C122.568 44.329 121.299 44.9499 119.968 45.4206L117.989 40.4546C120.062 39.718 121.903 38.465 123.329 36.8193C124.755 35.1737 125.718 33.1924 126.121 31.0715C126.525 28.9505 126.355 26.7633 125.629 24.7261C124.904 22.6888 123.647 20.8722 121.983 19.4556C120.319 18.0391 118.307 17.0718 116.143 16.6494C113.98 16.2269 111.742 16.364 109.65 17.0469C107.557 17.7299 105.683 18.9352 104.213 20.5436C102.743 22.1519 101.728 24.1077 101.268 26.2176L96.1553 24.0266C96.4974 22.8442 96.9655 21.7003 97.5519 20.6136C97.7502 20.2482 97.8363 19.8347 97.8 19.4226C97.7638 19.0105 97.6066 18.6174 97.3475 18.2906H97.3454ZM62.2415 131.555C60.1751 131.552 58.194 130.748 56.7328 129.319C55.2717 127.89 54.4497 125.953 54.4473 123.932V114.066H65.7965V131.555H62.2415ZM70.1911 49.1656L82.0679 22.6746L109.981 34.6446L104.011 47.8646C103.894 48.1229 103.831 48.4011 103.824 48.6833C103.818 48.9656 103.868 49.2463 103.973 49.5095C104.077 49.7727 104.234 50.0132 104.433 50.2172C104.633 50.4212 104.871 50.5848 105.136 50.6986L118.725 56.5696L114.73 65.4816H107.254C106.954 65.4815 106.658 65.5414 106.382 65.6577C106.107 65.7739 105.859 65.9441 105.654 66.1576L96.4201 75.7576C95.9504 76.4701 95.7278 77.3117 95.7851 78.1576V98.0576H95.2085L70.19 87.3346L70.1911 49.1656ZM118.144 123.111L113.932 123.838C113.515 123.909 113.129 124.097 112.819 124.379C112.509 124.66 112.289 125.023 112.184 125.424C111.857 126.685 111.35 127.894 110.678 129.017C110.466 129.371 110.362 129.778 110.378 130.189C110.395 130.599 110.532 130.997 110.772 131.334L113.242 134.794L111.503 136.494L107.964 134.082C107.619 133.847 107.212 133.713 106.793 133.697C106.373 133.681 105.957 133.783 105.595 133.992C104.448 134.65 103.212 135.147 101.923 135.468C101.513 135.57 101.142 135.785 100.855 136.089C100.567 136.392 100.375 136.77 100.302 137.178L99.5631 141.299L97.0765 141.291L96.2974 137.136C96.2219 136.734 96.0308 136.361 95.7465 136.062C95.4622 135.762 95.0964 135.548 94.6921 135.445C93.3959 135.115 92.1529 134.61 90.999 133.945C90.6369 133.735 90.2211 133.632 89.8008 133.647C89.3805 133.662 88.9734 133.795 88.628 134.03L85.1148 136.416L83.3368 134.679L85.7733 131.241C86.0128 130.903 86.1482 130.504 86.1632 130.093C86.1783 129.682 86.0724 129.276 85.8581 128.922C85.176 127.794 84.6578 126.578 84.3183 125.311C84.2123 124.915 83.9931 124.557 83.6865 124.279C83.3799 124.002 82.9986 123.815 82.5873 123.742L78.339 122.983L78.3288 120.552L82.5403 119.825C82.9567 119.753 83.343 119.565 83.653 119.284C83.9629 119.002 84.1833 118.639 84.2877 118.239C84.6146 116.978 85.1216 115.768 85.7937 114.646C86.0062 114.291 86.1103 113.884 86.0936 113.474C86.077 113.063 85.9402 112.666 85.6997 112.329L83.2304 108.869L84.9686 107.169L88.5083 109.581C88.853 109.816 89.2594 109.949 89.6794 109.965C90.0993 109.981 90.5151 109.879 90.8774 109.671C92.0244 109.013 93.2604 108.516 94.549 108.195C94.9588 108.092 95.3297 107.877 95.6172 107.573C95.9046 107.27 96.0965 106.892 96.1696 106.485L96.9088 102.364L99.3954 102.372L100.175 106.527C100.25 106.929 100.441 107.301 100.725 107.601C101.01 107.9 101.376 108.114 101.78 108.218C103.076 108.547 104.319 109.052 105.473 109.718C105.835 109.927 106.251 110.03 106.671 110.015C107.092 110 107.499 109.867 107.844 109.633L111.357 107.247L113.135 108.984L110.697 112.424C110.457 112.762 110.322 113.16 110.307 113.571C110.292 113.982 110.398 114.389 110.612 114.743C111.294 115.871 111.812 117.086 112.152 118.354C112.258 118.749 112.477 119.107 112.783 119.385C113.09 119.663 113.471 119.849 113.883 119.923L118.132 120.682L118.144 123.111ZM137.775 108.411C137.775 106.295 137.769 101.068 137.769 101.068C137.769 98.2896 133.373 98.2896 133.373 101.068V111.655C127.826 111.655 122.163 111.655 116.569 111.683L117.79 109.959C118.084 109.545 118.219 109.043 118.173 108.542C118.127 108.04 117.902 107.571 117.538 107.215L113.163 102.94C112.799 102.584 112.318 102.364 111.805 102.32C111.293 102.275 110.78 102.408 110.357 102.695L106.444 105.352C105.734 105.01 105.002 104.712 104.253 104.461L103.386 99.8386C103.109 98.3636 101.517 97.8866 100.207 98.0746C100.171 95.6886 100.435 83.2096 100.207 79.3796H133.373V89.8546C133.373 92.6326 137.769 92.6326 137.769 89.8546C137.769 89.8546 137.776 81.7756 137.776 78.0776L142.603 73.0546V103.392L137.775 108.411Z" fill="#FB8134"/>
<path d="M98.2236 112.071H98.1909C96.8861 112.069 95.594 112.321 94.3889 112.809C93.1837 113.298 92.0893 114.016 91.1687 114.92C90.2481 115.824 89.5193 116.897 89.0245 118.078C88.5296 119.259 88.2784 120.524 88.2853 121.8C88.299 124.386 89.3559 126.861 91.2262 128.689C93.0964 130.517 95.6288 131.549 98.2726 131.56H98.3054C99.6101 131.561 100.902 131.31 102.107 130.821C103.313 130.332 104.407 129.615 105.328 128.711C106.248 127.807 106.977 126.733 107.472 125.552C107.967 124.372 108.218 123.107 108.211 121.831C108.197 119.245 107.14 116.77 105.27 114.942C103.399 113.115 100.867 112.083 98.2236 112.072V112.071ZM102.211 125.684C101.699 126.19 101.088 126.591 100.414 126.862C99.7409 127.133 99.0184 127.269 98.29 127.262C96.8063 127.254 95.3855 126.674 94.3359 125.649C93.2862 124.623 92.6923 123.234 92.6829 121.783C92.6784 121.071 92.8184 120.365 93.0947 119.707C93.3709 119.048 93.7781 118.45 94.2924 117.947C94.8068 117.443 95.4182 117.044 96.0912 116.773C96.7643 116.503 97.4856 116.365 98.2134 116.369C99.6971 116.377 101.118 116.956 102.168 117.982C103.217 119.008 103.811 120.397 103.82 121.848C103.826 122.56 103.686 123.266 103.409 123.925C103.132 124.583 102.723 125.181 102.207 125.684H102.211Z" fill="#FB8134"/>
<path d="M29.2715 24.7865C29.6955 24.7646 30.1046 24.6258 30.4514 24.3861C30.7982 24.1463 31.0685 23.8155 31.231 23.4318C31.3936 23.0481 31.4418 22.6272 31.3701 22.2178C31.2983 21.8085 31.1095 21.4273 30.8256 21.1185L23.3341 13.7905C21.326 11.8255 18.2218 14.8645 20.2268 16.8285L27.7173 24.1565C27.9211 24.3565 28.1633 24.5152 28.4301 24.6233C28.6968 24.7314 28.9827 24.7869 29.2715 24.7865Z" fill="#FB8134"/>
<path d="M13.5101 58.6387H2.91642C0.0760378 58.6387 0.0760378 62.9387 2.91642 62.9387H13.5101C16.3505 62.9357 16.3505 58.6387 13.5101 58.6387Z" fill="#FB8134"/>
<path d="M28.388 97.1455L20.8975 104.473C18.8894 106.437 21.9966 109.473 24.0047 107.511L31.4952 100.183C33.5033 98.2195 30.3961 95.1805 28.388 97.1455Z" fill="#FB8134"/>
</svg>
