<svg width="36" height="24" viewBox="0 0 36 24" fill="none" xmlns="http://www.w3.org/2000/svg">
<path d="M22.3436 7.12279V5.21479C22.3436 4.04956 21.8808 2.93206 21.0568 2.10811C20.2329 1.28417 19.1154 0.821289 17.9501 0.821289C16.7849 0.821289 15.6674 1.28417 14.8435 2.10811C14.0195 2.93206 13.5566 4.04956 13.5566 5.21479V7.12279C13.5566 8.28802 14.0195 9.40552 14.8435 10.2295C15.6674 11.0534 16.7849 11.5163 17.9501 11.5163C19.1154 11.5163 20.2329 11.0534 21.0568 10.2295C21.8808 9.40552 22.3436 8.28802 22.3436 7.12279ZM14.7146 7.12279V5.21479C14.7071 4.78511 14.7852 4.35823 14.9444 3.95906C15.1036 3.5599 15.3407 3.19644 15.6419 2.88991C15.9431 2.58337 16.3023 2.3399 16.6987 2.1737C17.095 2.0075 17.5204 1.92191 17.9501 1.92191C18.3799 1.92191 18.8053 2.0075 19.2016 2.1737C19.5979 2.3399 19.9572 2.58337 20.2584 2.88991C20.5596 3.19644 20.7967 3.5599 20.9559 3.95906C21.1151 4.35823 21.1932 4.78511 21.1856 5.21479V7.12279C21.1932 7.55247 21.1151 7.97935 20.9559 8.37851C20.7967 8.77768 20.5596 9.14113 20.2584 9.44767C19.9572 9.7542 19.5979 9.99767 19.2016 10.1639C18.8053 10.3301 18.3799 10.4157 17.9501 10.4157C17.5204 10.4157 17.095 10.3301 16.6987 10.1639C16.3023 9.99767 15.9431 9.7542 15.6419 9.44767C15.3407 9.14113 15.1036 8.77768 14.9444 8.37851C14.7852 7.97935 14.7071 7.55247 14.7146 7.12279Z" fill="#FB8134"/>
<path d="M10.868 23.4367H25.031C25.1846 23.4367 25.3318 23.3757 25.4404 23.2672C25.549 23.1586 25.61 23.0113 25.61 22.8577V21.5297H35.31C35.4636 21.5297 35.6108 21.4687 35.7194 21.3602C35.828 21.2516 35.889 21.1043 35.889 20.9507V17.1937C35.8884 16.0914 35.4682 15.0306 34.7138 14.2269C33.9593 13.4232 32.9271 12.9369 31.827 12.8667C31.7067 12.8633 31.5876 12.8921 31.4821 12.9501C31.3766 13.0081 31.2886 13.0933 31.227 13.1967C30.9711 13.5098 30.6472 13.7604 30.2798 13.9293C29.9124 14.0981 29.5113 14.1809 29.1071 14.1713C28.7028 14.1616 28.3061 14.0598 27.9472 13.8736C27.5883 13.6874 27.2766 13.4217 27.036 13.0967C26.9808 13.0219 26.9083 12.9614 26.8247 12.9205C26.7412 12.8796 26.649 12.8595 26.556 12.8617C25.8042 12.8786 25.07 13.0927 24.427 13.4827C24.002 12.9886 23.482 12.5849 22.8979 12.2956C22.3139 12.0063 21.6776 11.8374 21.027 11.7987C20.9055 11.7995 20.7862 11.8319 20.681 11.8928C20.5758 11.9536 20.4883 12.0408 20.427 12.1457C20.1265 12.5128 19.7462 12.8064 19.3151 13.0042C18.884 13.202 18.4134 13.2988 17.9392 13.2872C17.465 13.2756 16.9997 13.156 16.5787 12.9374C16.1577 12.7188 15.7922 12.407 15.51 12.0257C15.4549 11.9508 15.3824 11.8902 15.2989 11.8493C15.2153 11.8084 15.123 11.7883 15.03 11.7907C13.7608 11.8201 12.5539 12.3465 11.669 13.2567C11.596 13.3317 11.527 13.4087 11.459 13.4877C10.8615 13.124 10.1842 12.9115 9.486 12.8687C9.36568 12.8654 9.24667 12.8943 9.1412 12.9523C9.03574 13.0103 8.94765 13.0954 8.886 13.1987C8.63012 13.5116 8.3062 13.762 7.93891 13.9308C7.57162 14.0996 7.17066 14.1823 6.76656 14.1726C6.36247 14.163 5.96591 14.0612 5.60709 13.8751C5.24827 13.689 4.93666 13.4235 4.696 13.0987C4.6407 13.024 4.56822 12.9636 4.48468 12.9227C4.40114 12.8818 4.30899 12.8616 4.216 12.8637C3.08807 12.8952 2.01681 13.3651 1.22964 14.1735C0.442478 14.982 0.001382 16.0654 0 17.1937V20.9507C0 21.0268 0.0149775 21.1021 0.044075 21.1723C0.0731725 21.2425 0.115821 21.3064 0.169586 21.3602C0.223351 21.4139 0.287182 21.4566 0.35743 21.4857C0.427677 21.5148 0.502967 21.5297 0.579002 21.5297H10.29V22.8577C10.29 23.0111 10.3509 23.1582 10.4592 23.2668C10.5676 23.3754 10.7146 23.4365 10.868 23.4367ZM26.309 14.0367C26.6658 14.4418 27.1046 14.7666 27.5962 14.9895C28.0879 15.2124 28.6213 15.3284 29.1611 15.3299C29.701 15.3313 30.235 15.2181 30.7278 14.9977C31.2206 14.7774 31.6611 14.455 32.02 14.0517C32.7725 14.1653 33.4594 14.5449 33.956 15.1215C34.4527 15.6982 34.7262 16.4337 34.727 17.1947V20.3727H25.61V16.6597C25.6106 15.889 25.4272 15.1293 25.075 14.4437C25.4532 14.2225 25.8736 14.0832 26.309 14.0347V14.0367ZM14.788 12.9657C15.1882 13.429 15.6833 13.8009 16.2397 14.0563C16.7961 14.3117 17.4009 14.4446 18.0131 14.446C18.6253 14.4475 19.2307 14.3174 19.7883 14.0646C20.3458 13.8118 20.8426 13.4421 21.245 12.9807C22.1336 13.1038 22.9477 13.544 23.5373 14.2201C24.1268 14.8962 24.4521 15.7627 24.453 16.6597V22.2797H11.447V16.6597C11.4523 15.7408 11.796 14.8559 12.4122 14.1742C13.0285 13.4925 13.8742 13.0615 14.788 12.9637V12.9657ZM1.158 20.3737V17.1957C1.16277 16.4159 1.45218 15.6646 1.97182 15.0831C2.49147 14.5016 3.20559 14.1298 3.98 14.0377C4.33681 14.4427 4.77549 14.7673 5.26707 14.9901C5.75864 15.2129 6.29191 15.3289 6.83163 15.3303C7.37134 15.3317 7.90521 15.2186 8.39795 14.9983C8.89069 14.7781 9.33107 14.4558 9.69 14.0527C10.0888 14.1127 10.4723 14.2485 10.82 14.4527C10.4711 15.1371 10.2898 15.8946 10.291 16.6627V20.3757L1.158 20.3737Z" fill="#FB8134"/>
<path d="M33.0244 8.84667V7.17767C33.008 6.14953 32.5881 5.16905 31.8552 4.44778C31.1223 3.72651 30.1352 3.32227 29.1069 3.32227C28.0787 3.32227 27.0916 3.72651 26.3587 4.44778C25.6258 5.16905 25.2059 6.14953 25.1895 7.17767V8.84667C25.2059 9.87482 25.6258 10.8553 26.3587 11.5766C27.0916 12.2978 28.0787 12.7021 29.1069 12.7021C30.1352 12.7021 31.1223 12.2978 31.8552 11.5766C32.5881 10.8553 33.008 9.87482 33.0244 8.84667ZM26.3464 8.84667V7.17767C26.3464 6.81522 26.4178 6.45632 26.5565 6.12146C26.6953 5.78661 26.8986 5.48234 27.1548 5.22606C27.4111 4.96977 27.7154 4.76647 28.0502 4.62777C28.3851 4.48906 28.744 4.41767 29.1064 4.41767C29.4689 4.41767 29.8278 4.48906 30.1627 4.62777C30.4975 4.76647 30.8018 4.96977 31.0581 5.22606C31.3144 5.48234 31.5176 5.78661 31.6563 6.12146C31.795 6.45632 31.8665 6.81522 31.8665 7.17767V8.84667C31.8665 9.20912 31.795 9.56802 31.6563 9.90288C31.5176 10.2377 31.3144 10.542 31.0581 10.7983C30.8018 11.0546 30.4975 11.2579 30.1627 11.3966C29.8278 11.5353 29.4689 11.6067 29.1064 11.6067C28.744 11.6067 28.3851 11.5353 28.0502 11.3966C27.7154 11.2579 27.4111 11.0546 27.1548 10.7983C26.8986 10.542 26.6953 10.2377 26.5565 9.90288C26.4178 9.56802 26.3464 9.20912 26.3464 8.84667Z" fill="#FB8134"/>
<path d="M10.6944 8.84667V7.17767C10.6779 6.14953 10.258 5.16905 9.5251 4.44778C8.79221 3.72651 7.80515 3.32227 6.77687 3.32227C5.74859 3.32227 4.76154 3.72651 4.02865 4.44778C3.29576 5.16905 2.8758 6.14953 2.85938 7.17767V8.84667C2.8758 9.87482 3.29576 10.8553 4.02865 11.5766C4.76154 12.2978 5.74859 12.7021 6.77687 12.7021C7.80515 12.7021 8.79221 12.2978 9.5251 11.5766C10.258 10.8553 10.6779 9.87482 10.6944 8.84667ZM4.01637 8.84667V7.17767C4.01637 6.44568 4.30715 5.74366 4.82475 5.22606C5.34235 4.70846 6.04438 4.41767 6.77637 4.41767C7.50837 4.41767 8.21039 4.70846 8.72799 5.22606C9.24559 5.74366 9.53637 6.44568 9.53637 7.17767V8.84667C9.53637 9.57867 9.24559 10.2807 8.72799 10.7983C8.21039 11.3159 7.50837 11.6067 6.77637 11.6067C6.04438 11.6067 5.34235 11.3159 4.82475 10.7983C4.30715 10.2807 4.01637 9.57867 4.01637 8.84667Z" fill="#FB8134"/>
</svg>
