<svg width="32" height="32" viewBox="0 0 32 32" fill="none" xmlns="http://www.w3.org/2000/svg">
<path d="M31.022 3.08C31.023 2.87146 30.9824 2.66481 30.9025 2.47215C30.8227 2.27949 30.7052 2.1047 30.557 1.958L29.063 0.465001C28.917 0.317494 28.7432 0.200437 28.5516 0.120615C28.36 0.0407939 28.1545 -0.000203334 27.947 7.5827e-07H27.942C27.7357 8.04904e-05 27.5315 0.0412385 27.3412 0.121074C27.151 0.20091 26.9786 0.317825 26.834 0.465001L20.061 7.238H6.723V1.551C6.723 1.34732 6.68288 1.14563 6.60494 0.957459C6.52699 0.769283 6.41275 0.598302 6.26872 0.454278C6.1247 0.310254 5.95372 0.196009 5.76554 0.118064C5.57737 0.0401186 5.37568 7.5827e-07 5.172 7.5827e-07H4.138C3.04112 0.000794605 1.98937 0.436742 1.21358 1.21216C0.43778 1.98758 0.00132412 3.03913 0 4.136L0 27.013C0.0621867 28.1042 0.542484 29.1295 1.34106 29.8757C2.13964 30.622 3.19508 31.0318 4.288 31.02H29.471C29.8824 31.02 30.2769 30.8566 30.5677 30.5657C30.8586 30.2749 31.022 29.8804 31.022 29.469V8.789C31.022 8.37765 30.8586 7.98315 30.5677 7.69228C30.2769 7.40141 29.8824 7.238 29.471 7.238H27.506L30.556 4.188C30.7028 4.04338 30.8195 3.87108 30.8993 3.68106C30.9792 3.49105 31.0205 3.2871 31.021 3.081L31.022 3.08ZM18.5 12.925C18.4456 12.9335 18.3901 12.9288 18.3379 12.9114C18.2857 12.894 18.2384 12.8644 18.2 12.825C18.1625 12.7869 18.1341 12.7409 18.1168 12.6904C18.0995 12.6398 18.0938 12.5861 18.1 12.533L18.3 10.775C18.3082 10.7381 18.3185 10.7017 18.331 10.666L20.364 12.7C20.33 12.707 20.3 12.724 20.264 12.728L18.5 12.925ZM21.208 12.081L18.946 9.818L24.581 4.183L26.842 6.444L21.208 12.081ZM25.308 3.451L26.075 2.685L28.335 4.946L27.569 5.713L25.308 3.451ZM1.036 4.136C1.03732 3.31424 1.36435 2.52651 1.94543 1.94543C2.52651 1.36435 3.31424 1.03732 4.136 1.036H5.172C5.30912 1.036 5.44062 1.09047 5.53757 1.18743C5.63453 1.28438 5.689 1.41588 5.689 1.553V22.233C5.689 22.3701 5.63453 22.5016 5.53757 22.5986C5.44062 22.6955 5.30912 22.75 5.172 22.75H4.138C3.55148 22.7497 2.97164 22.8745 2.4371 23.1159C1.90256 23.3573 1.4256 23.7098 1.038 24.15L1.036 4.136ZM29.471 8.272C29.6081 8.272 29.7396 8.32647 29.8366 8.42343C29.9335 8.52038 29.988 8.65188 29.988 8.789V29.469C29.988 29.6061 29.9335 29.7376 29.8366 29.8346C29.7396 29.9315 29.6081 29.986 29.471 29.986H4.288C3.46652 30 2.67105 29.6979 2.06587 29.1422C1.46069 28.5866 1.09202 27.8197 1.036 27V26.886C1.03732 26.0642 1.36435 25.2765 1.94543 24.6954C2.52651 24.1144 3.31424 23.7873 4.136 23.786H5.172C5.58335 23.786 5.97785 23.6226 6.26872 23.3317C6.55959 23.0409 6.723 22.6464 6.723 22.235V8.272H19.023L17.853 9.446C17.5252 9.76915 17.319 10.1955 17.269 10.653L17.069 12.414C17.0528 12.5858 17.0691 12.7592 17.117 12.925H8.274C8.13688 12.925 8.00538 12.9795 7.90843 13.0764C7.81147 13.1734 7.757 13.3049 7.757 13.442C7.757 13.5791 7.81147 13.7106 7.90843 13.8076C8.00538 13.9045 8.13688 13.959 8.274 13.959H9.825V27.918C9.825 28.0551 9.87947 28.1866 9.97643 28.2836C10.0734 28.3805 10.2049 28.435 10.342 28.435C10.4791 28.435 10.6106 28.3805 10.7076 28.2836C10.8045 28.1866 10.859 28.0551 10.859 27.918V20.68H16.546V24.816H12.927C12.7899 24.816 12.6584 24.8705 12.5614 24.9674C12.4645 25.0644 12.41 25.1959 12.41 25.333C12.41 25.4701 12.4645 25.6016 12.5614 25.6986C12.6584 25.7955 12.7899 25.85 12.927 25.85H23.267C23.5411 25.8497 23.8038 25.7407 23.9975 25.5468C24.1912 25.3529 24.3 25.0901 24.3 24.816V17.061C24.3 16.9239 24.2455 16.7924 24.1486 16.6954C24.0516 16.5985 23.9201 16.544 23.783 16.544C23.6459 16.544 23.5144 16.5985 23.4174 16.6954C23.3205 16.7924 23.266 16.9239 23.266 17.061V19.646H10.859V13.959H18.459C18.5094 13.9592 18.5599 13.9565 18.61 13.951L20.377 13.751C20.8253 13.7001 21.2438 13.5009 21.566 13.185L26.471 8.274H29.471V8.272ZM23.271 20.68V24.816H17.58V20.68H23.271ZM29.827 3.455L29.068 4.214L26.808 1.954L27.567 1.195C27.6162 1.14454 27.675 1.10439 27.7399 1.07692C27.8048 1.04945 27.8745 1.0352 27.945 1.035C28.0167 1.03514 28.0877 1.04954 28.1538 1.07735C28.2199 1.10516 28.2798 1.14583 28.33 1.197L29.83 2.689C29.8815 2.73962 29.9223 2.80002 29.9502 2.86665C29.978 2.93328 29.9922 3.0048 29.992 3.077C29.9919 3.14749 29.9776 3.21724 29.9502 3.28215C29.9227 3.34706 29.8825 3.40583 29.832 3.455H29.827Z" fill="#FB8134"/>
</svg>
