<svg width="24" height="31" viewBox="0 0 24 31" fill="none" xmlns="http://www.w3.org/2000/svg">
<path d="M5.16708 12.9751L7.93708 9.64213C8.0124 9.55142 8.04861 9.43451 8.03773 9.31711C8.02685 9.19972 7.96978 9.09144 7.87908 9.01612C7.78837 8.9408 7.67146 8.90459 7.55407 8.91547C7.43667 8.92635 7.3284 8.98341 7.25308 9.07412L4.87908 11.9311L4.36008 11.0881C4.29829 10.9877 4.19914 10.916 4.08446 10.8887C3.96978 10.8614 3.84896 10.8808 3.74858 10.9426C3.64819 11.0044 3.57647 11.1036 3.54918 11.2182C3.5219 11.3329 3.54128 11.4537 3.60308 11.5541L4.44708 12.9241C4.48417 12.9841 4.53497 13.0343 4.59529 13.0708C4.65561 13.1072 4.72373 13.1288 4.79403 13.1338C4.86434 13.1388 4.93482 13.127 4.99968 13.0994C5.06453 13.0718 5.12191 13.0292 5.16708 12.9751Z" fill="#FB8134"/>
<path d="M3.60212 17.4198L4.44512 18.7898C4.48207 18.85 4.5328 18.9004 4.59313 18.937C4.65346 18.9736 4.72164 18.9953 4.79202 19.0003C4.8624 19.0052 4.93296 18.9934 4.99785 18.9657C5.06273 18.9379 5.12007 18.8951 5.16512 18.8408L7.93512 15.5078C7.97241 15.4629 8.0005 15.4111 8.01777 15.3553C8.03504 15.2996 8.04116 15.241 8.03577 15.1828C8.03039 15.1247 8.0136 15.0682 7.98638 15.0166C7.95916 14.9649 7.92203 14.9191 7.87712 14.8818C7.83221 14.8445 7.78039 14.8165 7.72462 14.7992C7.66886 14.7819 7.61024 14.7758 7.55211 14.7812C7.49398 14.7866 7.43748 14.8034 7.38583 14.8306C7.33419 14.8578 7.28842 14.8949 7.25112 14.9399L4.87712 17.7968L4.35812 16.9538C4.32753 16.9041 4.28743 16.861 4.24014 16.8267C4.19285 16.7925 4.13929 16.768 4.0825 16.7544C4.02572 16.7409 3.96683 16.7387 3.9092 16.748C3.85157 16.7572 3.79633 16.7778 3.74662 16.8084C3.69691 16.839 3.65373 16.879 3.61951 16.9263C3.5853 16.9736 3.56074 17.0272 3.54723 17.084C3.53371 17.1407 3.53152 17.1996 3.54077 17.2573C3.55002 17.3149 3.57152 17.3701 3.60212 17.4198Z" fill="#FB8134"/>
<path d="M3.60212 23.3251L4.44512 24.6951C4.48207 24.7552 4.5328 24.8057 4.59313 24.8423C4.65346 24.8788 4.72164 24.9005 4.79202 24.9055C4.8624 24.9105 4.93296 24.8986 4.99785 24.8709C5.06273 24.8432 5.12007 24.8004 5.16512 24.7461L7.93512 21.4131C7.97241 21.3682 8.0005 21.3164 8.01777 21.2606C8.03504 21.2049 8.04116 21.1462 8.03577 21.0881C8.03039 21.03 8.0136 20.9735 7.98638 20.9218C7.95916 20.8702 7.92203 20.8244 7.87712 20.7871C7.83221 20.7498 7.78039 20.7217 7.72462 20.7045C7.66886 20.6872 7.61024 20.6811 7.55211 20.6865C7.49398 20.6919 7.43748 20.7086 7.38583 20.7358C7.33419 20.7631 7.28842 20.8002 7.25112 20.8451L4.87712 23.7021L4.35812 22.8591C4.32753 22.8094 4.28743 22.7662 4.24014 22.732C4.19285 22.6978 4.13929 22.6732 4.0825 22.6597C4.02572 22.6462 3.96683 22.644 3.9092 22.6533C3.85157 22.6625 3.79633 22.683 3.74662 22.7136C3.69691 22.7442 3.65373 22.7843 3.61951 22.8316C3.5853 22.8789 3.56074 22.9324 3.54723 22.9892C3.53371 23.046 3.53152 23.1049 3.54077 23.1625C3.55002 23.2202 3.57152 23.2754 3.60212 23.3251Z" fill="#FB8134"/>
<path d="M23.256 25.0882C23.1977 25.0882 23.14 25.0997 23.0861 25.122C23.0322 25.1443 22.9833 25.177 22.942 25.2182C22.9008 25.2594 22.8681 25.3084 22.8458 25.3623C22.8235 25.4161 22.812 25.4739 22.812 25.5322V28.7672C22.8117 28.9477 22.7399 29.1208 22.6123 29.2484C22.4846 29.3761 22.3115 29.4479 22.131 29.4482H1.57C1.38947 29.4479 1.21641 29.3761 1.08875 29.2484C0.961098 29.1208 0.889264 28.9477 0.889 28.7672V9.29118C0.889 9.17329 0.842168 9.06023 0.758808 8.97687C0.675448 8.89351 0.562389 8.84668 0.4445 8.84668C0.326611 8.84668 0.213552 8.89351 0.130192 8.97687C0.0468319 9.06023 0 9.17329 0 9.29118V28.7662C0.000529215 29.1824 0.166109 29.5814 0.460426 29.8757C0.754744 30.1701 1.15377 30.3357 1.57 30.3362H22.13C22.5462 30.3357 22.9453 30.1701 23.2396 29.8757C23.5339 29.5814 23.6995 29.1824 23.7 28.7662V25.5312C23.6997 25.4136 23.6528 25.3009 23.5696 25.2179C23.4864 25.1348 23.3736 25.0882 23.256 25.0882Z" fill="#FB8134"/>
<path d="M22.13 3.424H19.957V1.588C19.957 1.16684 19.7897 0.762922 19.4919 0.465114C19.1941 0.167307 18.7902 0 18.369 0C17.9478 0 17.5439 0.167307 17.2461 0.465114C16.9483 0.762922 16.781 1.16684 16.781 1.588V3.424H13.438V1.588C13.438 1.16684 13.2707 0.762922 12.9729 0.465114C12.6751 0.167307 12.2712 0 11.85 0C11.4288 0 11.0249 0.167307 10.7271 0.465114C10.4293 0.762922 10.262 1.16684 10.262 1.588V3.424H6.92V1.588C6.92 1.16684 6.7527 0.762922 6.45489 0.465114C6.15708 0.167307 5.75316 0 5.332 0C4.91084 0 4.50692 0.167307 4.20911 0.465114C3.91131 0.762922 3.744 1.16684 3.744 1.588V3.424H1.57C1.15377 3.42453 0.754744 3.59011 0.460426 3.88443C0.166109 4.17874 0.000529215 4.57777 0 4.994V7.217C0 7.33489 0.0468319 7.44795 0.130192 7.53131C0.213552 7.61467 0.326611 7.6615 0.4445 7.6615C0.562389 7.6615 0.675448 7.61467 0.758808 7.53131C0.842168 7.44795 0.889 7.33489 0.889 7.217V4.994C0.889264 4.81347 0.961098 4.64041 1.08875 4.51275C1.21641 4.3851 1.38947 4.31326 1.57 4.313H3.744V5.019C3.744 5.44016 3.91131 5.84408 4.20911 6.14189C4.50692 6.43969 4.91084 6.607 5.332 6.607C5.75316 6.607 6.15708 6.43969 6.45489 6.14189C6.7527 5.84408 6.92 5.44016 6.92 5.019V4.313H10.263V5.019C10.263 5.44016 10.4303 5.84408 10.7281 6.14189C11.0259 6.43969 11.4298 6.607 11.851 6.607C12.2722 6.607 12.6761 6.43969 12.9739 6.14189C13.2717 5.84408 13.439 5.44016 13.439 5.019V4.313H16.782V5.019C16.782 5.44016 16.9493 5.84408 17.2471 6.14189C17.5449 6.43969 17.9488 6.607 18.37 6.607C18.7912 6.607 19.1951 6.43969 19.4929 6.14189C19.7907 5.84408 19.958 5.44016 19.958 5.019V4.313H22.13C22.3105 4.31326 22.4836 4.3851 22.6112 4.51275C22.7389 4.64041 22.8107 4.81347 22.811 4.994V23.458C22.811 23.5759 22.8578 23.6889 22.9412 23.7723C23.0246 23.8557 23.1376 23.9025 23.2555 23.9025C23.3734 23.9025 23.4864 23.8557 23.5698 23.7723C23.6532 23.6889 23.7 23.5759 23.7 23.458V4.994C23.6995 4.57777 23.5339 4.17874 23.2396 3.88443C22.9453 3.59011 22.5462 3.42453 22.13 3.424ZM6.03 5.018C6.03 5.20365 5.95625 5.3817 5.82497 5.51297C5.6937 5.64425 5.51565 5.718 5.33 5.718C5.14435 5.718 4.9663 5.64425 4.83503 5.51297C4.70375 5.3817 4.63 5.20365 4.63 5.018V1.588C4.63 1.40235 4.70375 1.2243 4.83503 1.09303C4.9663 0.96175 5.14435 0.888 5.33 0.888C5.51565 0.888 5.6937 0.96175 5.82497 1.09303C5.95625 1.2243 6.03 1.40235 6.03 1.588V5.018ZM12.548 5.018C12.548 5.20365 12.4742 5.3817 12.343 5.51297C12.2117 5.64425 12.0337 5.718 11.848 5.718C11.6623 5.718 11.4843 5.64425 11.353 5.51297C11.2218 5.3817 11.148 5.20365 11.148 5.018V1.588C11.148 1.40235 11.2218 1.2243 11.353 1.09303C11.4843 0.96175 11.6623 0.888 11.848 0.888C12.0337 0.888 12.2117 0.96175 12.343 1.09303C12.4742 1.2243 12.548 1.40235 12.548 1.588V5.018ZM19.066 5.018C19.066 5.20365 18.9923 5.3817 18.861 5.51297C18.7297 5.64425 18.5516 5.718 18.366 5.718C18.1803 5.718 18.0023 5.64425 17.871 5.51297C17.7397 5.3817 17.666 5.20365 17.666 5.018V1.588C17.666 1.40235 17.7397 1.2243 17.871 1.09303C18.0023 0.96175 18.1803 0.888 18.366 0.888C18.5516 0.888 18.7297 0.96175 18.861 1.09303C18.9923 1.2243 19.066 1.40235 19.066 1.588V5.018Z" fill="#FB8134"/>
<path d="M9.82024 13.3431H19.1822C19.5515 13.3431 19.9057 13.1964 20.1669 12.9353C20.428 12.6741 20.5747 12.3199 20.5747 11.9506C20.5747 11.5813 20.428 11.2271 20.1669 10.966C19.9057 10.7048 19.5515 10.5581 19.1822 10.5581H9.82024C9.45092 10.5581 9.09673 10.7048 8.83559 10.966C8.57444 11.2271 8.42773 11.5813 8.42773 11.9506C8.42773 12.3199 8.57444 12.6741 8.83559 12.9353C9.09673 13.1964 9.45092 13.3431 9.82024 13.3431ZM9.82024 11.4431H19.1822C19.3158 11.4431 19.4438 11.4962 19.5383 11.5906C19.6327 11.685 19.6857 11.8131 19.6857 11.9466C19.6857 12.0801 19.6327 12.2082 19.5383 12.3026C19.4438 12.3971 19.3158 12.4501 19.1822 12.4501H9.82024C9.6867 12.4501 9.55864 12.3971 9.46422 12.3026C9.36979 12.2082 9.31674 12.0801 9.31674 11.9466C9.31674 11.8131 9.36979 11.685 9.46422 11.5906C9.55864 11.4962 9.6867 11.4431 9.82024 11.4431Z" fill="#FB8134"/>
<path d="M9.82024 19.221H19.1822C19.5515 19.221 19.9057 19.0743 20.1669 18.8132C20.428 18.552 20.5747 18.1979 20.5747 17.8286C20.5747 17.4592 20.428 17.105 20.1669 16.8439C19.9057 16.5828 19.5515 16.436 19.1822 16.436H9.82024C9.45092 16.436 9.09673 16.5828 8.83559 16.8439C8.57444 17.105 8.42773 17.4592 8.42773 17.8286C8.42773 18.1979 8.57444 18.552 8.83559 18.8132C9.09673 19.0743 9.45092 19.221 9.82024 19.221ZM9.82024 17.321H19.1822C19.3158 17.321 19.4438 17.3741 19.5383 17.4685C19.6327 17.5629 19.6857 17.691 19.6857 17.8245C19.6857 17.9581 19.6327 18.0861 19.5383 18.1806C19.4438 18.275 19.3158 18.328 19.1822 18.328H9.82024C9.6867 18.328 9.55864 18.275 9.46422 18.1806C9.36979 18.0861 9.31674 17.9581 9.31674 17.8245C9.31674 17.691 9.36979 17.5629 9.46422 17.4685C9.55864 17.3741 9.6867 17.321 9.82024 17.321Z" fill="#FB8134"/>
<path d="M9.82024 25.0999H19.1822C19.5515 25.0999 19.9057 24.9532 20.1669 24.6921C20.428 24.4309 20.5747 24.0767 20.5747 23.7074C20.5747 23.3381 20.428 22.9839 20.1669 22.7228C19.9057 22.4616 19.5515 22.3149 19.1822 22.3149H9.82024C9.45092 22.3149 9.09673 22.4616 8.83559 22.7228C8.57444 22.9839 8.42773 23.3381 8.42773 23.7074C8.42773 24.0767 8.57444 24.4309 8.83559 24.6921C9.09673 24.9532 9.45092 25.0999 9.82024 25.0999ZM9.82024 23.2H19.1822C19.3158 23.2 19.4438 23.253 19.5383 23.3474C19.6327 23.4418 19.6857 23.5699 19.6857 23.7034C19.6857 23.837 19.6327 23.9651 19.5383 24.0595C19.4438 24.1539 19.3158 24.2069 19.1822 24.2069H9.82024C9.6867 24.2069 9.55864 24.1539 9.46422 24.0595C9.36979 23.9651 9.31674 23.837 9.31674 23.7034C9.31674 23.5699 9.36979 23.4418 9.46422 23.3474C9.55864 23.253 9.6867 23.2 9.82024 23.2Z" fill="#FB8134"/>
</svg>
